<?xml version="1.0" encoding="utf-8"?>
<!-- Generator: Adobe Illustrator 19.2.1, SVG Export Plug-In . SVG Version: 6.00 Build 0)  -->
<svg version="1.1" id="レイヤー_1" xmlns="http://www.w3.org/2000/svg" xmlns:xlink="http://www.w3.org/1999/xlink" x="0px"
	 y="0px" viewBox="0 0 95.7 27.6" style="enable-background:new 0 0 95.7 27.6;" xml:space="preserve">
<style type="text/css">
	.st0{fill:#E50012;}
</style>
<title>yts_logo</title>
<polygon class="st0" points="62.6,0 33.1,0 33.1,8.6 43.3,8.6 43.3,27.6 52.4,27.6 52.4,8.6 62.6,8.6 "/>
<polygon class="st0" points="31.2,0 21.6,0 15.6,9 9.6,0 0,0 11,16.7 11,27.6 20.1,27.6 20.1,16.7 "/>
<path class="st0" d="M86.9,9.8h-12c-0.5,0-0.9-0.4-0.9-0.9c0,0,0,0,0,0l0,0C74,8.4,74.4,8,74.9,8l0,0h19.5V0H73.8
	c-4.9,0-8.9,4-8.9,8.9l0,0c0,4.9,4,8.9,8.9,8.9h12c0.5,0,0.9,0.4,0.9,0.9c0,0,0,0,0,0l0,0c0,0.5-0.4,0.9-0.9,0.9l0,0H65.4v8h21.4
	c4.9,0,8.9-4,8.9-8.9l0,0c0.1-4.8-3.8-8.8-8.6-8.9C87,9.8,87,9.8,86.9,9.8z"/>
</svg>
